<mxfile host="app.diagrams.net" modified="2022-07-26T10:06:49.150Z" agent="5.0 (Windows NT 10.0; Win64; x64) AppleWebKit/537.36 (KHTML, like Gecko) Chrome/103.0.0.0 Safari/537.36" etag="DdJU7VEGIEFy35-lJrXu" version="20.1.3" type="github">
  <diagram id="EQXF9pWdoi8yN7TvZgOK" name="Page-1">
    <mxGraphModel dx="869" dy="511" grid="1" gridSize="10" guides="1" tooltips="1" connect="1" arrows="1" fold="1" page="1" pageScale="1" pageWidth="850" pageHeight="1100" math="0" shadow="0">
      <root>
        <mxCell id="0" />
        <mxCell id="1" parent="0" />
        <mxCell id="eH0I-CbsNQJT3ZjVgyi2-1" value="" style="rounded=1;whiteSpace=wrap;html=1;" vertex="1" parent="1">
          <mxGeometry x="150" y="60" width="280" height="210" as="geometry" />
        </mxCell>
        <mxCell id="eH0I-CbsNQJT3ZjVgyi2-2" style="edgeStyle=orthogonalEdgeStyle;rounded=0;orthogonalLoop=1;jettySize=auto;html=1;exitX=1;exitY=0.5;exitDx=0;exitDy=0;endArrow=classic;endFill=1;" edge="1" parent="1" source="eH0I-CbsNQJT3ZjVgyi2-3" target="eH0I-CbsNQJT3ZjVgyi2-5">
          <mxGeometry relative="1" as="geometry" />
        </mxCell>
        <mxCell id="eH0I-CbsNQJT3ZjVgyi2-24" style="edgeStyle=orthogonalEdgeStyle;rounded=0;orthogonalLoop=1;jettySize=auto;html=1;exitX=1;exitY=0.5;exitDx=0;exitDy=0;entryX=0;entryY=0.5;entryDx=0;entryDy=0;fontSize=8;endArrow=classic;endFill=1;" edge="1" parent="1" source="eH0I-CbsNQJT3ZjVgyi2-3" target="eH0I-CbsNQJT3ZjVgyi2-22">
          <mxGeometry relative="1" as="geometry" />
        </mxCell>
        <mxCell id="eH0I-CbsNQJT3ZjVgyi2-3" value="100" style="rounded=0;whiteSpace=wrap;html=1;" vertex="1" parent="1">
          <mxGeometry x="185" y="133" width="80" height="40" as="geometry" />
        </mxCell>
        <mxCell id="eH0I-CbsNQJT3ZjVgyi2-4" value="Customer Bank/e-money&lt;br&gt;Account" style="text;html=1;strokeColor=none;fillColor=none;align=center;verticalAlign=middle;whiteSpace=wrap;rounded=0;fontStyle=1" vertex="1" parent="1">
          <mxGeometry x="180" y="97" width="90" height="30" as="geometry" />
        </mxCell>
        <mxCell id="eH0I-CbsNQJT3ZjVgyi2-5" value="99.3" style="rounded=0;whiteSpace=wrap;html=1;" vertex="1" parent="1">
          <mxGeometry x="310" y="133" width="80" height="40" as="geometry" />
        </mxCell>
        <mxCell id="eH0I-CbsNQJT3ZjVgyi2-6" value="Indepay&lt;br&gt;PG Account" style="text;html=1;strokeColor=none;fillColor=none;align=center;verticalAlign=middle;whiteSpace=wrap;rounded=0;fontStyle=1" vertex="1" parent="1">
          <mxGeometry x="300" y="103" width="100" height="30" as="geometry" />
        </mxCell>
        <mxCell id="eH0I-CbsNQJT3ZjVgyi2-7" value="" style="rounded=1;whiteSpace=wrap;html=1;" vertex="1" parent="1">
          <mxGeometry x="480" y="63" width="260" height="200" as="geometry" />
        </mxCell>
        <mxCell id="eH0I-CbsNQJT3ZjVgyi2-8" style="edgeStyle=orthogonalEdgeStyle;rounded=0;orthogonalLoop=1;jettySize=auto;html=1;exitX=1;exitY=0.5;exitDx=0;exitDy=0;endArrow=classic;endFill=1;" edge="1" parent="1" source="eH0I-CbsNQJT3ZjVgyi2-10" target="eH0I-CbsNQJT3ZjVgyi2-12">
          <mxGeometry relative="1" as="geometry" />
        </mxCell>
        <mxCell id="eH0I-CbsNQJT3ZjVgyi2-9" style="edgeStyle=orthogonalEdgeStyle;rounded=0;orthogonalLoop=1;jettySize=auto;html=1;exitX=1;exitY=0.5;exitDx=0;exitDy=0;entryX=0;entryY=0.5;entryDx=0;entryDy=0;fontSize=20;endArrow=classic;endFill=1;" edge="1" parent="1" source="eH0I-CbsNQJT3ZjVgyi2-10" target="eH0I-CbsNQJT3ZjVgyi2-16">
          <mxGeometry relative="1" as="geometry" />
        </mxCell>
        <mxCell id="eH0I-CbsNQJT3ZjVgyi2-10" value="99.3" style="rounded=0;whiteSpace=wrap;html=1;" vertex="1" parent="1">
          <mxGeometry x="505" y="132" width="80" height="40" as="geometry" />
        </mxCell>
        <mxCell id="eH0I-CbsNQJT3ZjVgyi2-11" value="Indepay&lt;br&gt;Settlement Account" style="text;html=1;strokeColor=none;fillColor=none;align=center;verticalAlign=middle;whiteSpace=wrap;rounded=0;fontStyle=1" vertex="1" parent="1">
          <mxGeometry x="487.5" y="97" width="115" height="30" as="geometry" />
        </mxCell>
        <mxCell id="eH0I-CbsNQJT3ZjVgyi2-12" value="99" style="rounded=0;whiteSpace=wrap;html=1;" vertex="1" parent="1">
          <mxGeometry x="630" y="132" width="80" height="40" as="geometry" />
        </mxCell>
        <mxCell id="eH0I-CbsNQJT3ZjVgyi2-13" value="Indepay&#39;s&lt;br&gt;Merchant Bank Account" style="text;html=1;strokeColor=none;fillColor=none;align=center;verticalAlign=middle;whiteSpace=wrap;rounded=0;fontStyle=1" vertex="1" parent="1">
          <mxGeometry x="620" y="92" width="100" height="40" as="geometry" />
        </mxCell>
        <mxCell id="eH0I-CbsNQJT3ZjVgyi2-14" style="edgeStyle=orthogonalEdgeStyle;rounded=0;orthogonalLoop=1;jettySize=auto;html=1;exitX=1;exitY=0.5;exitDx=0;exitDy=0;endArrow=classic;endFill=1;dashed=1;" edge="1" parent="1" source="eH0I-CbsNQJT3ZjVgyi2-5" target="eH0I-CbsNQJT3ZjVgyi2-10">
          <mxGeometry relative="1" as="geometry" />
        </mxCell>
        <mxCell id="eH0I-CbsNQJT3ZjVgyi2-16" value="0.3" style="rounded=0;whiteSpace=wrap;html=1;" vertex="1" parent="1">
          <mxGeometry x="630" y="220" width="80" height="40" as="geometry" />
        </mxCell>
        <mxCell id="eH0I-CbsNQJT3ZjVgyi2-17" value="Indepay&lt;br&gt;Revenue Account" style="text;html=1;strokeColor=none;fillColor=none;align=center;verticalAlign=middle;whiteSpace=wrap;rounded=0;fontStyle=1" vertex="1" parent="1">
          <mxGeometry x="610" y="189" width="120" height="30" as="geometry" />
        </mxCell>
        <mxCell id="eH0I-CbsNQJT3ZjVgyi2-19" value="&lt;span style=&quot;font-size: 20px;&quot;&gt;&lt;b&gt;Indepay Flow Of Fund&lt;/b&gt;&lt;/span&gt;" style="text;html=1;strokeColor=none;fillColor=none;align=left;verticalAlign=middle;whiteSpace=wrap;rounded=0;" vertex="1" parent="1">
          <mxGeometry x="160" y="20" width="230" height="30" as="geometry" />
        </mxCell>
        <mxCell id="eH0I-CbsNQJT3ZjVgyi2-20" value="&lt;font style=&quot;font-size: 8px;&quot;&gt;PG Account&lt;/font&gt;" style="text;html=1;strokeColor=none;fillColor=none;align=center;verticalAlign=middle;whiteSpace=wrap;rounded=0;fontStyle=1" vertex="1" parent="1">
          <mxGeometry x="257.5" y="60" width="65" height="20" as="geometry" />
        </mxCell>
        <mxCell id="eH0I-CbsNQJT3ZjVgyi2-21" value="&lt;font style=&quot;font-size: 8px;&quot;&gt;Indepay Bank Account&lt;/font&gt;" style="text;html=1;strokeColor=none;fillColor=none;align=center;verticalAlign=middle;whiteSpace=wrap;rounded=0;fontStyle=1" vertex="1" parent="1">
          <mxGeometry x="558.75" y="63" width="102.5" height="20" as="geometry" />
        </mxCell>
        <mxCell id="eH0I-CbsNQJT3ZjVgyi2-22" value="0.7" style="rounded=0;whiteSpace=wrap;html=1;" vertex="1" parent="1">
          <mxGeometry x="310" y="211" width="80" height="40" as="geometry" />
        </mxCell>
        <mxCell id="eH0I-CbsNQJT3ZjVgyi2-23" value="PG Settlement&lt;br&gt;Account" style="text;html=1;strokeColor=none;fillColor=none;align=center;verticalAlign=middle;whiteSpace=wrap;rounded=0;fontStyle=1" vertex="1" parent="1">
          <mxGeometry x="290" y="180" width="120" height="30" as="geometry" />
        </mxCell>
        <mxCell id="eH0I-CbsNQJT3ZjVgyi2-25" value="&lt;font style=&quot;font-size: 10px;&quot;&gt;*data in thousand rupiahs&lt;br&gt;&lt;br&gt;Case: PG charged 0.7% of transaction to Indepay and Indepay charged 1% of transaction to merchant&lt;br&gt;&lt;/font&gt;" style="text;html=1;strokeColor=none;fillColor=none;align=left;verticalAlign=middle;whiteSpace=wrap;rounded=0;" vertex="1" parent="1">
          <mxGeometry x="480" y="280" width="230" height="70" as="geometry" />
        </mxCell>
      </root>
    </mxGraphModel>
  </diagram>
</mxfile>
